<?xml version="1.0" encoding="utf-8"?>
<!-- Generator: Adobe Illustrator 19.0.0, SVG Export Plug-In . SVG Version: 6.00 Build 0)  -->
<svg version="1.1" xmlns="http://www.w3.org/2000/svg" xmlns:xlink="http://www.w3.org/1999/xlink" x="0px" y="0px"
	 viewBox="0 0 800 800" style="enable-background:new 0 0 800 800;" xml:space="preserve">
<style type="text/css">
	.st0{display:none;}
	.st1{display:inline;}
	.st2{opacity:8.000000e-002;clip-path:url(#SVGID_2_);fill:#FFFFFF;}
	.st3{opacity:8.000000e-002;clip-path:url(#SVGID_4_);fill:#FFFFFF;}
	.st4{font-family:'CopperplateGothic-Bold';}
	.st5{font-size:62.2463px;}
</style>
<g id="background">
</g>
<g id="object">
	<g class="st0">
		<g class="st1">
			<g>
				<g>
					<path d="M975.4,323c3.3,1.3-31.3-1.6-38.5,0.2c-7.2,1.7-15.6,38.4-3.6,41.5c12,3.1,23,6,23,6L975.4,323z"/>
					<path d="M1393.5,326.6c-3.3,1.3,31.3-1.6,38.5,0.2c7.2,1.7,15.6,38.4,3.6,41.5c-12,3.1-23,6-23,6L1393.5,326.6z"/>
					<g>
						<g>
							<g>
								<g>
									<path d="M1388.4,316.3c-45.2-10-111.1-12-147.1,5.3c-30.7,14.8-51.7,15-57.1,14.7c0-0.1,0-0.1,0-0.1s-0.2,0-0.7,0.1
										c-0.5,0-0.7-0.1-0.7-0.1s0,0,0,0.1c-5.5,0.3-26.4,0-57.1-14.7c-35.9-17.3-101.8-15.3-147.1-5.3
										c-45.2,10-40.6,115.8-16,145.7c24.6,29.9,59.9,27.3,83.2,28.6c23.3,1.3,86.6-16.3,102.5-58.6c6.7-18,17-61.4,35.2-62.5
										c18.2,1.1,28.5,44.5,35.2,62.5c15.8,42.2,79.2,59.9,102.5,58.6c23.3-1.3,58.6,1.3,83.2-28.6
										C1429,432.1,1433.7,326.3,1388.4,316.3z M1120.4,444c-27.3,31.9-84.5,45.4-123.1,21.8c-38.6-23.6-56.6-98-9.6-133.2
										c28.1-21.1,146,3.6,154.7,26.9C1151,382.8,1147.6,412.1,1120.4,444z M1369.8,465.8c-38.6,23.6-95.8,10.2-123.1-21.8
										c-27.3-31.9-30.6-61.2-22-84.5c8.7-23.3,126.5-48,154.7-26.9C1426.4,367.9,1408.4,442.2,1369.8,465.8z"/>
								</g>
							</g>
						</g>
					</g>
				</g>
			</g>
		</g>
		<g class="st1">
			<path d="M1124.8,331H972.3c-1.9,2.5-3.5,5.1-4.9,8.1h167.1C1131.3,336.3,1128.1,333.6,1124.8,331z"/>
			<path d="M1245.6,331c-3.1,2.6-6.2,5.3-9.1,8.1h168.8c-1.5-2.8-3.2-5.5-5.1-8.1H1245.6z"/>
			<path d="M1147.5,352.8H962.9c-0.8,2.7-1.6,5.4-2.3,8.1h192C1151.1,358.1,1149.5,355.4,1147.5,352.8z"/>
			<path d="M1224.5,352.8c-1.9,2.6-3.6,5.3-5,8.1h194c-0.6-2.7-1.4-5.4-2.3-8.1H1224.5z"/>
			<path d="M1157.1,380.6c0-2-0.1-4-0.4-5.9H956.9c-0.6,2.2-1.1,4.5-1.7,6.8c-0.1,0.4-0.2,0.9-0.4,1.3h202.3
				C1157.1,382,1157.1,381.3,1157.1,380.6z"/>
			<path d="M1214.3,374.7c-0.6,2.6-0.9,5.3-1,8.1h202.9c-0.1-2.7-0.2-5.4-0.5-8.1H1214.3z"/>
			<path d="M1156.1,396.5H952.7c-0.1,2.7,0,5.4,0.3,8.1h201.6C1155.2,401.9,1155.7,399.2,1156.1,396.5z"/>
			<path d="M1215.3,396.5c0.8,2.7,1.9,5.4,3.4,8.1H1415c0.4-2.7,0.7-5.4,0.9-8.1H1215.3z"/>
			<path d="M1150.5,418.4H955.6c0.7,2.7,1.6,5.4,2.5,8.1h189C1148.4,423.8,1149.5,421.1,1150.5,418.4z"/>
			<path d="M1412.5,418.4h-186.7c1.2,2.8,2.5,5.5,4,8.1h180.7c0.6-2.3,1.1-4.6,1.7-6.9C1412.3,419.1,1412.4,418.7,1412.5,418.4z"/>
			<path d="M1139.6,440.2H963.7c1.2,2.7,2.4,5.4,3.7,8.1h166.5C1135.9,445.7,1137.8,443,1139.6,440.2z"/>
			<path d="M1239.1,440.2c2.2,2.8,4.5,5.5,6.9,8.1h158c1-2.6,1.9-5.4,2.8-8.1H1239.1z"/>
			<path d="M1259.6,462.1c2.8,2.7,5.7,5.4,8.5,8.1h123.3c2.3-2.5,4.3-5.2,6.1-8.1H1259.6z"/>
			<path d="M1121.2,462.1H973.9c0.5,1.2,1.1,2.4,1.6,3.5c0.8,2.1,2.3,3.5,4,4.5h131.3C1114.5,467.7,1117.9,465,1121.2,462.1z"/>
		</g>
	</g>
	<g class="st0">
		<path class="st1" d="M1218.7,573.8c45.6-58.5,163.7-41,200.9,16.3c28.8,44.3,6.5,149.2-80.5,142S1181.7,621.2,1218.7,573.8z"/>
		<path class="st1" d="M1410,626.8c0,6.6,4.5,11.9,10,11.9h21.9c5.5,0,10-5.3,10-11.9l0,0c0-6.6-4.5-11.9-10-11.9H1420
			C1414.5,614.9,1410,620.2,1410,626.8L1410,626.8z"/>
		<path class="st1" d="M1148.4,573.8c-45.6-58.5-163.7-41-200.9,16.3c-28.8,44.3-6.5,149.2,80.5,142
			C1115,724.9,1185.3,621.2,1148.4,573.8z"/>
		<path class="st1" d="M957.1,626.8c0,6.6-4.5,11.9-10,11.9h-21.9c-5.5,0-10-5.3-10-11.9l0,0c0-6.6,4.5-11.9,10-11.9h21.9
			C952.6,614.9,957.1,620.2,957.1,626.8L957.1,626.8z"/>
		<path class="st1" d="M1260.3,545.5c-0.9-0.3-23.2-6-76.7-6.2c-53.6,0.2-75.8,5.9-76.7,6.2l3.1,11.6c0.2-0.1,21.9-5.6,73.4-5.8
			c51.5,0.2,73.7,5.7,74,5.8L1260.3,545.5z"/>
		<path class="st1" d="M1216.3,576.1c-5.4-6.8-15.5-14.8-32.8-15.1c-17.2,0.3-27.3,8.4-32.8,15.1c-5.9,7.3-7.6,14.6-7.8,15.4
			l12.2,2.8c0.2-0.8,5.1-20.2,28.4-20.7c23.3,0.5,28.2,19.9,28.4,20.7l12.2-2.8C1223.9,590.7,1222.2,583.5,1216.3,576.1z"/>
		<g class="st1">
			<defs>
				<path id="SVGID_1_" d="M1148.4,573.8c-45.6-58.5-163.7-41-200.9,16.3c-28.8,44.3-6.5,149.2,80.5,142
					C1115,724.9,1185.3,621.2,1148.4,573.8z"/>
			</defs>
			<clipPath id="SVGID_2_">
				<use xlink:href="#SVGID_1_"  style="overflow:visible;"/>
			</clipPath>
			<path class="st2" d="M858.4,523.5c0,55.4-7.7,97.1,89.2,122.4c51.3,13.4,98-35.5,98-90.9c0-55.4-43-100.3-96-100.3
				C896.6,454.7,858.4,468.1,858.4,523.5z"/>
		</g>
		<g class="st1">
			<defs>
				<path id="SVGID_3_" d="M1218.7,573.8c45.6-58.5,163.7-41,200.9,16.3c28.8,44.3,6.5,149.2-80.5,142S1181.7,621.2,1218.7,573.8z"
					/>
			</defs>
			<clipPath id="SVGID_4_">
				<use xlink:href="#SVGID_3_"  style="overflow:visible;"/>
			</clipPath>
			<path class="st3" d="M1509.7,523.5c0,55.4,7.7,97.1-89.2,122.4c-51.3,13.4-98-35.5-98-90.9c0-55.4,43-100.3,96-100.3
				C1471.6,454.7,1509.7,468.1,1509.7,523.5z"/>
		</g>
		<g class="st1">
			<path d="M1061.9,547.3c16.3,0,31.9,2.8,45.2,8c14.1,5.6,25.4,13.8,33.7,24.4c5.2,6.7,7.9,15.2,8,25.1c0.1,9.9-2.6,21.3-7.6,32.8
				c-9,20.6-24.9,40.5-44.6,56c-21.5,16.9-45.5,26.9-69.4,28.8c-2.6,0.2-5.1,0.3-7.6,0.3c-14.3,0-27.1-3.6-38-10.6
				c-9.8-6.4-18-15.4-24.2-26.9c-7.6-14.1-11.9-31.2-12.1-48.3c-0.1-16.4,3.5-31.2,10.3-41.6c9.2-14.2,24.4-26.3,44-35
				C1018.5,552,1040.7,547.3,1061.9,547.3 M1061.9,537.6c-45.5,0-93.1,19.8-114.4,52.5c-27.8,42.9-7.9,142.4,72.1,142.4
				c2.7,0,5.5-0.1,8.4-0.4c87-7.2,157.3-111,120.4-158.4C1128.9,548.7,1096,537.6,1061.9,537.6L1061.9,537.6z"/>
			<path d="M1305.2,547.3c21.2,0,43.3,4.7,62.3,13.1c19.6,8.7,34.8,20.8,43.9,35c6.8,10.4,10.4,25.2,10.3,41.6
				c-0.1,17.1-4.4,34.2-12.1,48.3c-6.2,11.5-14.4,20.5-24.2,26.9c-10.9,7.1-23.7,10.6-38,10.6c-2.5,0-5-0.1-7.6-0.3
				c-23.8-2-47.8-12-69.4-28.8c-19.7-15.5-35.6-35.4-44.6-56c-5-11.5-7.7-22.9-7.6-32.8c0.1-9.9,2.8-18.4,8-25.1
				c8.3-10.6,19.6-18.9,33.7-24.4C1273.2,550.1,1288.9,547.3,1305.2,547.3L1305.2,547.3 M1305.2,537.6c-34.1,0-67,11.1-86.5,36.2
				c-36.9,47.4,33.4,151.1,120.4,158.4c2.9,0.2,5.7,0.4,8.4,0.4c80,0,99.9-99.5,72.1-142.4C1398.3,557.4,1350.6,537.6,1305.2,537.6
				L1305.2,537.6z"/>
		</g>
	</g>
	<g>
		<g>
			<g>
				<g>
					<path d="M649.7,253.6c-4.4,2.1,37.1-8.1,49.9-1.7c12.1,6,18.8,34.8,12.2,45.8c-6.6,11.1-30.3,30.6-30.3,30.6L649.7,253.6z"/>
				</g>
				<path d="M557.4,298.2c34.4,0,64.3,20.1,78.9,49.3c-14.7,29.3-44.5,49.3-78.9,49.3c-34.4,0-64.3-20-78.9-49.3
					C493.1,318.3,522.9,298.2,557.4,298.2z M518.4,324.4c-9.3,5.9-17.1,13.8-23,23.2c5.9,9.3,13.8,17.3,23,23.2
					c11.7,7.4,25.1,11.4,38.9,11.4c13.8,0,27.3-3.9,38.9-11.4c9.3-5.9,17.1-13.8,23-23.2c-5.9-9.3-13.8-17.3-23-23.2
					c-0.6-0.4-1.2-0.8-1.8-1.1c1.5,4.2,2.4,8.8,2.4,13.5c0,21.8-17.7,39.5-39.5,39.5c-21.8,0-39.5-17.7-39.5-39.5
					c0-4.7,0.8-9.3,2.4-13.5C519.6,323.6,519,324,518.4,324.4z M557.4,331.8c0,8.2,6.6,14.8,14.8,14.8c8.2,0,14.8-6.6,14.8-14.8
					c0-8.2-6.6-14.8-14.8-14.8C564,317,557.4,323.7,557.4,331.8z"/>
			</g>
			<g>
				<g>
					<g>
						<path d="M150.3,253.6c4.4,2.1-37.1-8.1-49.9-1.7c-12.1,6-18.8,34.8-12.2,45.8c6.6,11.1,30.3,30.6,30.3,30.6L150.3,253.6z"/>
					</g>
					<path d="M646.8,249.3c-49.5-30.1-134.1-14.5-177.5,6.4c-37.1,17.8-62.4,18.1-69,17.8c0-0.1,0-0.1,0-0.1s-0.1,0-0.3,0
						c-0.2,0-0.3,0-0.3,0s0,0,0,0.1c-6.6,0.3-31.9,0.1-69-17.8c-43.4-20.9-128-36.5-177.5-6.4c-55,33.4-48.3,115.3-27.5,157
						c20.8,41.7,61.1,52.9,108.6,53.4c47.5,0.6,104.6-19.7,123.7-70.7c8.1-21.5,20.4-73.2,42-75.4c21.6,2.2,33.9,53.9,42,75.4
						c19.1,51,76.2,71.3,123.7,70.7c47.5-0.6,87.7-11.7,108.6-53.4C695.1,364.6,701.8,282.7,646.8,249.3z M324.3,403.5
						c-32.9,38.6-101.9,54.8-148.6,26.3c-46.6-28.5-67.9-117.7-11.6-160.8c54.7-41.8,176.3,4.3,186.7,32.5
						C361.2,329.6,357.2,365,324.3,403.5z M624.3,429.8c-46.6,28.5-115.7,12.3-148.6-26.3c-32.9-38.6-37-73.9-26.5-102
						c10.4-28.1,132-74.3,186.7-32.5C692.2,312.1,670.9,401.3,624.3,429.8z"/>
				</g>
				<path d="M242.6,298.2c-34.4,0-64.3,20.1-78.9,49.3c14.7,29.3,44.5,49.3,78.9,49.3c34.4,0,64.3-20,78.9-49.3
					C306.9,318.3,277.1,298.2,242.6,298.2z M281.6,324.4c9.3,5.9,17.1,13.8,23,23.2c-5.9,9.3-13.8,17.3-23,23.2
					c-11.7,7.4-25.1,11.4-38.9,11.4c-13.8,0-27.3-3.9-38.9-11.4c-9.3-5.9-17.1-13.8-23-23.2c5.9-9.3,13.8-17.3,23-23.2
					c0.6-0.4,1.2-0.8,1.8-1.1c-1.5,4.2-2.4,8.8-2.4,13.5c0,21.8,17.7,39.5,39.5,39.5s39.5-17.7,39.5-39.5c0-4.7-0.8-9.3-2.4-13.5
					C280.4,323.6,281,324,281.6,324.4z M242.6,331.8c0,8.2-6.6,14.8-14.8,14.8c-8.2,0-14.8-6.6-14.8-14.8c0-8.2,6.6-14.8,14.8-14.8
					C236,317,242.6,323.7,242.6,331.8z"/>
			</g>
		</g>
		<text transform="matrix(1 0 0 1 97.9926 551.888)" class="st4 st5">LAYANI GLASSES</text>
	</g>
</g>
</svg>
