<?xml version="1.0" encoding="utf-8"?>
<!-- Generator: Adobe Illustrator 19.0.0, SVG Export Plug-In . SVG Version: 6.00 Build 0)  -->
<svg version="1.1" xmlns="http://www.w3.org/2000/svg" xmlns:xlink="http://www.w3.org/1999/xlink" x="0px" y="0px"
	 viewBox="0 0 800 800" style="enable-background:new 0 0 800 800;" xml:space="preserve">
<style type="text/css">
	.st0{opacity:8.000000e-002;clip-path:url(#SVGID_2_);fill:#FFFFFF;}
	.st1{opacity:8.000000e-002;clip-path:url(#SVGID_4_);fill:#FFFFFF;}
	.st2{font-family:'CopperplateGothic-Bold';}
	.st3{font-size:62.2463px;}
</style>
<g id="background">
</g>
<g id="object">
	<g>
		<path d="M438.5,271.9c50-64.1,179.4-44.9,220.2,17.9c31.5,48.6,7.1,163.6-88.2,155.6C475.1,437.6,398,323.8,438.5,271.9z"/>
		<path d="M648.2,330c0,7.2,4.9,13.1,10.9,13.1h24c6,0,10.9-5.9,10.9-13.1l0,0c0-7.2-4.9-13.1-10.9-13.1h-24
			C653.1,316.9,648.2,322.8,648.2,330L648.2,330z"/>
		<path d="M361.5,271.9c-49.9-64.1-179.4-44.9-220.2,17.9c-31.5,48.6-7.1,163.6,88.2,155.6C324.9,437.6,402,323.8,361.5,271.9z"/>
		<path d="M151.8,330c0,7.2-4.9,13.1-10.9,13.1h-24c-6,0-10.9-5.9-10.9-13.1l0,0c0-7.2,4.9-13.1,10.9-13.1h24
			C146.9,316.9,151.8,322.8,151.8,330L151.8,330z"/>
		<path d="M484.1,240.9c-1-0.3-25.4-6.6-84.1-6.8c-58.7,0.2-83.1,6.5-84.1,6.8l3.4,12.7c0.2-0.1,24-6.1,80.4-6.3
			c56.4,0.2,80.8,6.3,81.1,6.3L484.1,240.9z"/>
		<path d="M435.9,274.5c-6-7.4-17-16.3-35.9-16.6c-18.9,0.3-30,9.2-35.9,16.6c-6.5,8-8.4,16-8.5,16.9l13.4,3
			c0.2-0.9,5.5-22.1,31.1-22.7c25.5,0.6,30.9,21.8,31.1,22.7l13.4-3C444.3,290.5,442.4,282.5,435.9,274.5z"/>
		<g>
			<defs>
				<path id="SVGID_1_" d="M361.5,271.9c-49.9-64.1-179.4-44.9-220.2,17.9c-31.5,48.6-7.1,163.6,88.2,155.6
					C324.9,437.6,402,323.8,361.5,271.9z"/>
			</defs>
			<clipPath id="SVGID_2_">
				<use xlink:href="#SVGID_1_"  style="overflow:visible;"/>
			</clipPath>
			<path class="st0" d="M43.7,216.8c0,60.7-8.4,106.4,97.7,134.1c56.2,14.7,107.4-38.9,107.4-99.6c0-60.7-47.1-109.9-105.2-109.9
				C85.5,141.4,43.7,156.1,43.7,216.8z"/>
		</g>
		<g>
			<defs>
				<path id="SVGID_3_" d="M438.5,271.9c50-64.1,179.4-44.9,220.2,17.9c31.5,48.6,7.1,163.6-88.2,155.6
					C475.1,437.6,398,323.8,438.5,271.9z"/>
			</defs>
			<clipPath id="SVGID_4_">
				<use xlink:href="#SVGID_3_"  style="overflow:visible;"/>
			</clipPath>
			<path class="st1" d="M757.4,216.8c0,60.7,8.4,106.4-97.7,134.1c-56.2,14.7-107.4-38.9-107.4-99.6c0-60.7,47.1-109.9,105.2-109.9
				C715.7,141.4,757.4,156.1,757.4,216.8z"/>
		</g>
		<g>
			<path d="M266.7,242.9c17.9,0,35,3,49.5,8.8c15.4,6.1,27.9,15.1,37,26.8c5.7,7.4,8.7,16.6,8.8,27.5c0.1,10.9-2.8,23.3-8.3,35.9
				c-9.9,22.6-27.3,44.4-48.9,61.4c-23.6,18.5-49.9,29.4-76,31.6c-2.8,0.2-5.6,0.4-8.3,0.4c-15.7,0-29.7-3.9-41.7-11.6
				c-10.8-7-19.7-16.9-26.5-29.5c-8.4-15.4-13.1-34.2-13.2-52.9c-0.1-18,3.9-34.2,11.3-45.6c10.1-15.5,26.7-28.8,48.2-38.3
				C219.2,248,243.5,242.9,266.7,242.9 M266.7,232.3c-49.8,0-102.1,21.6-125.4,57.6c-30.5,47-8.6,156,79,156c3,0,6.1-0.1,9.2-0.4
				c95.3-7.9,172.4-121.6,131.9-173.5C340.1,244.4,304.1,232.3,266.7,232.3L266.7,232.3z"/>
			<path d="M533.3,242.9c23.2,0,47.5,5.1,68.3,14.4c21.4,9.6,38.1,22.8,48.2,38.3c7.4,11.4,11.4,27.6,11.3,45.6
				c-0.1,18.7-4.8,37.5-13.2,52.9c-6.8,12.6-15.8,22.5-26.5,29.5c-11.9,7.7-26,11.6-41.7,11.6c-2.7,0-5.5-0.1-8.3-0.4
				c-26.1-2.2-52.4-13.1-76-31.6c-21.6-17-39-38.7-48.9-61.4c-5.5-12.6-8.4-25.1-8.3-35.9c0.1-10.9,3-20.2,8.8-27.5
				c9.1-11.7,21.5-20.7,37-26.8C498.3,245.9,515.4,242.9,533.3,242.9L533.3,242.9 M533.3,232.3c-37.4,0-73.4,12.2-94.8,39.7
				c-40.5,51.9,36.6,165.6,131.9,173.5c3.1,0.3,6.2,0.4,9.2,0.4c87.7,0,109.5-109.1,79-156C635.4,253.9,583.1,232.3,533.3,232.3
				L533.3,232.3z"/>
		</g>
	</g>
	<text transform="matrix(1 0 0 1 97.9926 551.888)" class="st2 st3">LAYANI GLASSES</text>
</g>
</svg>
